<svg id="visual" viewBox="0 0 2200 340" width="2200" height="340" xmlns="http://www.w3.org/2000/svg" xmlns:xlink="http://www.w3.org/1999/xlink" version="1.1"><rect x="0" y="0" width="2200" height="340" fill="#303030"></rect><path d="M0 199L14.2 203.8C28.3 208.7 56.7 218.3 84.8 231C113 243.7 141 259.3 169.2 265.7C197.3 272 225.7 269 253.8 269.8C282 270.7 310 275.3 338.2 274.3C366.3 273.3 394.7 266.7 423 267.5C451.3 268.3 479.7 276.7 507.8 282.8C536 289 564 293 592.2 278.8C620.3 264.7 648.7 232.3 677 207C705.3 181.7 733.7 163.3 761.8 148.3C790 133.3 818 121.7 846.2 119.7C874.3 117.7 902.7 125.3 930.8 142.8C959 160.3 987 187.7 1015.2 189.2C1043.3 190.7 1071.7 166.3 1100 164.7C1128.3 163 1156.7 184 1184.8 197.7C1213 211.3 1241 217.7 1269.2 210.5C1297.3 203.3 1325.7 182.7 1353.8 171.2C1382 159.7 1410 157.3 1438.2 177.5C1466.3 197.7 1494.7 240.3 1523 253.3C1551.3 266.3 1579.7 249.7 1607.8 228.2C1636 206.7 1664 180.3 1692.2 189C1720.3 197.7 1748.7 241.3 1777 235.5C1805.3 229.7 1833.7 174.3 1861.8 166.5C1890 158.7 1918 198.3 1946.2 205.2C1974.3 212 2002.7 186 2030.8 179.3C2059 172.7 2087 185.3 2115.2 184.2C2143.3 183 2171.7 168 2185.8 160.5L2200 153L2200 341L2185.8 341C2171.7 341 2143.3 341 2115.2 341C2087 341 2059 341 2030.8 341C2002.7 341 1974.3 341 1946.2 341C1918 341 1890 341 1861.8 341C1833.7 341 1805.3 341 1777 341C1748.7 341 1720.3 341 1692.2 341C1664 341 1636 341 1607.8 341C1579.7 341 1551.3 341 1523 341C1494.7 341 1466.3 341 1438.2 341C1410 341 1382 341 1353.8 341C1325.7 341 1297.3 341 1269.2 341C1241 341 1213 341 1184.8 341C1156.7 341 1128.3 341 1100 341C1071.7 341 1043.3 341 1015.2 341C987 341 959 341 930.8 341C902.7 341 874.3 341 846.2 341C818 341 790 341 761.8 341C733.7 341 705.3 341 677 341C648.7 341 620.3 341 592.2 341C564 341 536 341 507.8 341C479.7 341 451.3 341 423 341C394.7 341 366.3 341 338.2 341C310 341 282 341 253.8 341C225.7 341 197.3 341 169.2 341C141 341 113 341 84.8 341C56.7 341 28.3 341 14.2 341L0 341Z" fill="#111" stroke-linecap="round" stroke-linejoin="miter"></path></svg>