<svg id="visual" viewBox="0 0 2200 340" width="2200" height="340" xmlns="http://www.w3.org/2000/svg" xmlns:xlink="http://www.w3.org/1999/xlink" version="1.1"><rect x="0" y="0" width="2200" height="340" fill="#303030"></rect><path d="M0 253L14.2 258.3C28.3 263.7 56.7 274.3 84.8 264.5C113 254.7 141 224.3 169.2 213.2C197.3 202 225.7 210 253.8 204.5C282 199 310 180 338.2 174.7C366.3 169.3 394.7 177.7 423 179.8C451.3 182 479.7 178 507.8 186C536 194 564 214 592.2 209.8C620.3 205.7 648.7 177.3 677 170.5C705.3 163.7 733.7 178.3 761.8 192.3C790 206.3 818 219.7 846.2 229.8C874.3 240 902.7 247 930.8 233.2C959 219.3 987 184.7 1015.2 174.2C1043.3 163.7 1071.7 177.3 1100 183.5C1128.3 189.7 1156.7 188.3 1184.8 185C1213 181.7 1241 176.3 1269.2 185.5C1297.3 194.7 1325.7 218.3 1353.8 225.5C1382 232.7 1410 223.3 1438.2 223.7C1466.3 224 1494.7 234 1523 220.2C1551.3 206.3 1579.7 168.7 1607.8 159.2C1636 149.7 1664 168.3 1692.2 190.2C1720.3 212 1748.7 237 1777 226.2C1805.3 215.3 1833.7 168.7 1861.8 145.3C1890 122 1918 122 1946.2 139.5C1974.3 157 2002.7 192 2030.8 206C2059 220 2087 213 2115.2 220.2C2143.3 227.3 2171.7 248.7 2185.8 259.3L2200 270L2200 341L2185.8 341C2171.7 341 2143.3 341 2115.2 341C2087 341 2059 341 2030.8 341C2002.7 341 1974.3 341 1946.2 341C1918 341 1890 341 1861.8 341C1833.7 341 1805.3 341 1777 341C1748.7 341 1720.3 341 1692.2 341C1664 341 1636 341 1607.8 341C1579.7 341 1551.3 341 1523 341C1494.7 341 1466.3 341 1438.2 341C1410 341 1382 341 1353.8 341C1325.7 341 1297.3 341 1269.2 341C1241 341 1213 341 1184.8 341C1156.7 341 1128.3 341 1100 341C1071.7 341 1043.3 341 1015.2 341C987 341 959 341 930.8 341C902.7 341 874.3 341 846.2 341C818 341 790 341 761.8 341C733.7 341 705.3 341 677 341C648.7 341 620.3 341 592.2 341C564 341 536 341 507.8 341C479.7 341 451.3 341 423 341C394.7 341 366.3 341 338.2 341C310 341 282 341 253.8 341C225.7 341 197.3 341 169.2 341C141 341 113 341 84.8 341C56.7 341 28.3 341 14.2 341L0 341Z" fill="#111" stroke-linecap="round" stroke-linejoin="miter"></path></svg>