<svg id="visual" viewBox="0 0 2200 340" width="2200" height="340" xmlns="http://www.w3.org/2000/svg" xmlns:xlink="http://www.w3.org/1999/xlink" version="1.1"><rect x="0" y="0" width="2200" height="340" fill="#ffffff"></rect><path d="M0 235L14.2 230.7C28.3 226.3 56.7 217.7 84.8 200.8C113 184 141 159 169.2 138.8C197.3 118.7 225.7 103.3 253.8 112.3C282 121.3 310 154.7 338.2 167.7C366.3 180.7 394.7 173.3 423 182.7C451.3 192 479.7 218 507.8 219.3C536 220.7 564 197.3 592.2 185.2C620.3 173 648.7 172 677 168C705.3 164 733.7 157 761.8 146.2C790 135.3 818 120.7 846.2 137C874.3 153.3 902.7 200.7 930.8 199.3C959 198 987 148 1015.2 142.5C1043.3 137 1071.7 176 1100 195.8C1128.3 215.7 1156.7 216.3 1184.8 215.7C1213 215 1241 213 1269.2 212.3C1297.3 211.7 1325.7 212.3 1353.8 219.5C1382 226.7 1410 240.3 1438.2 219.2C1466.3 198 1494.7 142 1523 119.2C1551.3 96.3 1579.7 106.7 1607.8 125C1636 143.3 1664 169.7 1692.2 190.2C1720.3 210.7 1748.7 225.3 1777 214.3C1805.3 203.3 1833.7 166.7 1861.8 168.5C1890 170.3 1918 210.7 1946.2 212.3C1974.3 214 2002.7 177 2030.8 154C2059 131 2087 122 2115.2 115.7C2143.3 109.3 2171.7 105.7 2185.8 103.8L2200 102L2200 341L2185.8 341C2171.7 341 2143.3 341 2115.2 341C2087 341 2059 341 2030.8 341C2002.7 341 1974.3 341 1946.2 341C1918 341 1890 341 1861.8 341C1833.7 341 1805.3 341 1777 341C1748.7 341 1720.3 341 1692.2 341C1664 341 1636 341 1607.8 341C1579.7 341 1551.3 341 1523 341C1494.7 341 1466.3 341 1438.2 341C1410 341 1382 341 1353.8 341C1325.7 341 1297.3 341 1269.2 341C1241 341 1213 341 1184.8 341C1156.7 341 1128.3 341 1100 341C1071.7 341 1043.3 341 1015.2 341C987 341 959 341 930.8 341C902.7 341 874.3 341 846.2 341C818 341 790 341 761.8 341C733.7 341 705.3 341 677 341C648.7 341 620.3 341 592.2 341C564 341 536 341 507.8 341C479.7 341 451.3 341 423 341C394.7 341 366.3 341 338.2 341C310 341 282 341 253.8 341C225.7 341 197.3 341 169.2 341C141 341 113 341 84.8 341C56.7 341 28.3 341 14.2 341L0 341Z" fill="#303030" stroke-linecap="round" stroke-linejoin="miter"></path></svg>