<svg id="visual" viewBox="0 0 2200 340" width="2200" height="340" xmlns="http://www.w3.org/2000/svg" xmlns:xlink="http://www.w3.org/1999/xlink" version="1.1"><rect x="0" y="0" width="2200" height="340" fill="#ffffff"></rect><path d="M0 134L14.2 137C28.3 140 56.7 146 84.8 149C113 152 141 152 169.2 157.8C197.3 163.7 225.7 175.3 253.8 186C282 196.7 310 206.3 338.2 222.2C366.3 238 394.7 260 423 251.8C451.3 243.7 479.7 205.3 507.8 186.8C536 168.3 564 169.7 592.2 172.5C620.3 175.3 648.7 179.7 677 185.8C705.3 192 733.7 200 761.8 199.5C790 199 818 190 846.2 180.7C874.3 171.3 902.7 161.7 930.8 171.8C959 182 987 212 1015.2 207.7C1043.3 203.3 1071.7 164.7 1100 156C1128.3 147.3 1156.7 168.7 1184.8 173.5C1213 178.3 1241 166.7 1269.2 154C1297.3 141.3 1325.7 127.7 1353.8 120.8C1382 114 1410 114 1438.2 141C1466.3 168 1494.7 222 1523 248.7C1551.3 275.3 1579.7 274.7 1607.8 266.5C1636 258.3 1664 242.7 1692.2 232.2C1720.3 221.7 1748.7 216.3 1777 227C1805.3 237.7 1833.7 264.3 1861.8 254.3C1890 244.3 1918 197.7 1946.2 194.3C1974.3 191 2002.7 231 2030.8 233.2C2059 235.3 2087 199.7 2115.2 187C2143.3 174.3 2171.7 184.7 2185.8 189.8L2200 195L2200 341L2185.8 341C2171.7 341 2143.3 341 2115.2 341C2087 341 2059 341 2030.8 341C2002.7 341 1974.3 341 1946.2 341C1918 341 1890 341 1861.8 341C1833.7 341 1805.3 341 1777 341C1748.7 341 1720.3 341 1692.2 341C1664 341 1636 341 1607.8 341C1579.7 341 1551.3 341 1523 341C1494.7 341 1466.3 341 1438.2 341C1410 341 1382 341 1353.8 341C1325.7 341 1297.3 341 1269.2 341C1241 341 1213 341 1184.8 341C1156.7 341 1128.3 341 1100 341C1071.7 341 1043.3 341 1015.2 341C987 341 959 341 930.8 341C902.7 341 874.3 341 846.2 341C818 341 790 341 761.8 341C733.7 341 705.3 341 677 341C648.7 341 620.3 341 592.2 341C564 341 536 341 507.8 341C479.7 341 451.3 341 423 341C394.7 341 366.3 341 338.2 341C310 341 282 341 253.8 341C225.7 341 197.3 341 169.2 341C141 341 113 341 84.8 341C56.7 341 28.3 341 14.2 341L0 341Z" fill="#303030" stroke-linecap="round" stroke-linejoin="miter"></path></svg>